<?xml version="1.0" encoding="utf-8"?><!-- Uploaded to: SVG Repo, www.svgrepo.com, Generator: SVG Repo Mixer Tools -->
<svg fill="#000000" width="800px" height="800px" viewBox="0 0 24 24" id="download-5" data-name="Flat Color" xmlns="http://www.w3.org/2000/svg" class="icon flat-color"><path id="secondary" d="M15.71,13.29a1,1,0,0,0-1.42,0L13,14.59V3a1,1,0,0,0-2,0V14.59l-1.29-1.3a1,1,0,0,0-1.42,1.42l3,3a1,1,0,0,0,1.42,0l3-3A1,1,0,0,0,15.71,13.29Z" style="fill: rgb(44, 169, 188);"></path><path id="primary" d="M19,22H5a2,2,0,0,1-2-2V17a1,1,0,0,1,2,0v3H19V17a1,1,0,0,1,2,0v3A2,2,0,0,1,19,22Z" style="fill: rgb(0, 0, 0);"></path></svg>