<?xml version="1.0" encoding="utf-8"?><!-- Uploaded to: SVG Repo, www.svgrepo.com, Generator: SVG Repo Mixer Tools -->
<svg fill="#000000" width="800px" height="800px" viewBox="0 0 24 24" id="share" data-name="Flat Color" xmlns="http://www.w3.org/2000/svg" class="icon flat-color"><path id="secondary" d="M16.71,6.29l-4-4a1,1,0,0,0-1.42,0l-4,4A1,1,0,1,0,8.71,7.71L11,5.41V16a1,1,0,0,0,2,0V5.41l2.29,2.3a1,1,0,0,0,1.42,0A1,1,0,0,0,16.71,6.29Z" style="fill: rgb(44, 169, 188);"></path><path id="primary" d="M18,9H14v7a2,2,0,0,1-4,0V9H6a2,2,0,0,0-2,2v9a2,2,0,0,0,2,2H18a2,2,0,0,0,2-2V11A2,2,0,0,0,18,9Z" style="fill: rgb(0, 0, 0);"></path></svg>